<svg width="440" height="90" viewBox="0 0 440 90" fill="none" xmlns="http://www.w3.org/2000/svg">
<g clip-path="url(#clip0_3972_18977)">
<path d="M301.677 9.19864C301.677 8.29348 301.945 7.40865 302.448 6.65604C302.951 5.90342 303.666 5.31683 304.502 4.97044C305.338 4.62405 306.258 4.53342 307.146 4.71001C308.034 4.8866 308.849 5.32247 309.489 5.96252C310.13 6.60256 310.565 7.41803 310.742 8.3058C310.919 9.19357 310.828 10.1138 310.482 10.95C310.135 11.7863 309.549 12.501 308.796 13.0039C308.043 13.5068 307.158 13.7752 306.253 13.7752C305.044 13.7613 303.888 13.2747 303.033 12.4194C302.177 11.5641 301.691 10.4081 301.677 9.19864Z" fill="#FBB516"/>
<path d="M246.018 9.19864C246.034 7.98977 246.521 6.83486 247.376 5.97999C248.231 5.12512 249.386 4.63787 250.595 4.62207C251.814 4.62207 252.984 5.10665 253.847 5.96922C254.71 6.83178 255.194 8.00167 255.194 9.22152C255.194 10.4414 254.71 11.6113 253.847 12.4738C252.984 13.3364 251.814 13.821 250.595 13.821C249.378 13.805 248.216 13.3114 247.36 12.4467C246.504 11.582 246.022 10.4155 246.018 9.19864Z" fill="#FBB516"/>
<path d="M168.537 9.19864C168.552 7.98977 169.04 6.83486 169.895 5.97999C170.749 5.12512 171.904 4.63787 173.113 4.62207C174.333 4.62207 175.503 5.10665 176.365 5.96922C177.228 6.83178 177.713 8.00167 177.713 9.22152C177.713 10.4414 177.228 11.6113 176.365 12.4738C175.503 13.3364 174.333 13.821 173.113 13.821C171.896 13.805 170.735 13.3114 169.879 12.4467C169.023 11.582 168.541 10.4155 168.537 9.19864Z" fill="#FBB516"/>
<path d="M176.889 17.9707H169.459V52.1348H176.889V17.9707Z" fill="#012C3D"/>
<path d="M205.203 17.1006C202.923 17.1197 200.674 17.621 198.602 18.5715C196.53 19.5219 194.683 20.9001 193.182 22.6154V17.9701H185.752V52.1419H193.182V28.2979C194.198 26.9166 195.517 25.7861 197.037 24.9929C198.557 24.1997 200.239 23.7647 201.953 23.7214C206.126 23.7214 208.818 25.491 208.818 30.7998V52.1571H216.247V28.0844C216.24 21.0822 212.579 17.1006 205.203 17.1006Z" fill="#012C3D"/>
<path d="M234.348 17.9706V16.0637C234.348 12.2499 236.186 10.3354 239.085 10.3354C240.131 10.2796 241.169 10.5458 242.059 11.0981L243.684 5.57574C241.848 4.64408 239.808 4.18776 237.75 4.24853C231.457 4.24853 226.926 8.42084 226.926 16.0637V17.9706H221.267V24.477H226.926V52.1423H234.356V24.477H246.949V52.1423H254.378V17.9706H234.348Z" fill="#012C3D"/>
<path d="M282.844 17.1006C280.564 17.1206 278.314 17.6222 276.241 18.5726C274.168 19.5229 272.319 20.9006 270.816 22.6154V17.9701H263.386V52.1419H270.816V28.2979C271.832 26.9171 273.151 25.7869 274.671 24.9937C276.192 24.2005 277.873 23.7653 279.587 23.7214C283.76 23.7214 286.452 25.491 286.452 30.7998V52.1571H293.874V28.0844C293.874 21.0822 290.197 17.1006 282.844 17.1006Z" fill="#012C3D"/>
<path d="M310.021 17.9707H302.592V52.1348H310.021V17.9707Z" fill="#012C3D"/>
<path d="M331.211 46.4067C329.09 46.4067 327.962 44.7134 327.962 42.3793V24.4773H334.895V17.971H327.962V8.63477H320.532V17.971H314.873V24.4773H320.532V44.2176C320.532 49.8773 323.583 52.9894 329.304 52.9894C332.767 52.9894 334.964 52.0664 336.306 50.7926L334.537 45.2092C333.62 46.0164 332.431 46.4446 331.211 46.4067Z" fill="#012C3D"/>
<path d="M366.039 17.9707L356.062 43.5766L346.062 17.9707H338.167L352.164 52.562L350.471 56.452C349.479 58.7403 347.923 59.4268 345.589 59.4268C344.619 59.4155 343.66 59.2241 342.759 58.8624L341.623 65.506C342.996 65.8096 344.396 65.9757 345.803 66.0018C351.112 65.9179 355.215 64.0949 357.549 58.2903L374.033 17.9707H366.039Z" fill="#012C3D"/>
<path d="M145.028 15.6292L147.957 18.8404L154.433 12.9442C151.898 9.29547 148.519 6.31214 144.585 4.24733C140.65 2.18252 136.276 1.09715 131.833 1.08328C125.122 1.06697 118.657 3.60919 113.755 8.19222C108.767 12.7688 105.029 19.0616 101.345 25.156C98.0727 30.6174 94.6861 36.2695 90.5367 40.4647C87.2415 43.7979 82.7107 45.476 77.0663 45.476C72.3346 45.476 67.7966 43.5964 64.4508 40.2505C61.105 36.9047 59.2253 32.3668 59.2253 27.635C59.2253 22.9033 61.105 18.3654 64.4508 15.0195C67.7966 11.6737 72.3346 9.79402 77.0663 9.79402C85.388 9.79402 90.9562 15.8961 92.9165 18.4361L97.6837 10.7475C94.8433 7.28148 91.1727 4.58983 87.0131 2.92269C82.8535 1.25555 78.34 0.667032 73.892 1.21184C69.444 1.75664 65.206 3.41708 61.5717 6.03883C57.9375 8.66058 55.025 12.1585 53.105 16.2076C51.185 20.2567 50.3198 24.7254 50.5898 29.1985C50.8598 33.6716 52.2562 38.0038 54.6493 41.7925C57.0424 45.5813 60.3545 48.7035 64.2777 50.8691C68.2009 53.0347 72.6079 54.1733 77.0892 54.1791C85.0295 54.1791 91.8181 51.5552 96.7379 46.5515C101.658 41.5478 105.266 35.5372 108.843 29.6335C112.42 23.7297 115.616 18.3293 119.697 14.5918C121.424 12.9803 123.453 11.7277 125.668 10.9066C127.883 10.0856 130.239 9.71255 132.599 9.80905C134.959 9.90555 137.276 10.4697 139.416 11.4688C141.556 12.4679 143.477 13.882 145.067 15.6292H145.028Z" fill="#FBB516"/>
<path d="M129.804 25.308V34.0112H148.507L148.278 34.568C146.917 37.8064 144.629 40.57 141.702 42.5109C138.774 44.4518 135.338 45.4832 131.825 45.4755C129.537 45.4755 125.883 44.7127 121.146 40.8989C119.591 39.6534 118.142 38.2808 116.814 36.7952L111.978 44.6746C114.556 47.7256 121.314 54.1786 131.81 54.1786C138.421 54.3088 144.838 51.9419 149.781 47.5502C153.92 43.9648 156.812 39.1569 158.041 33.8205C158.746 31.0336 158.962 28.1459 158.682 25.2852L129.804 25.308Z" fill="#FBB516"/>
<path d="M385.52 22.5346C385.52 23.1583 385.402 23.7483 385.166 24.3046C384.93 24.8608 384.605 25.3497 384.192 25.7711C383.779 26.1841 383.29 26.5128 382.726 26.7572C382.169 27.0016 381.571 27.1238 380.93 27.1238C380.29 27.1238 379.691 27.0058 379.135 26.7699C378.579 26.5254 378.094 26.1967 377.681 25.7837C377.277 25.3708 376.956 24.8861 376.72 24.3299C376.484 23.7736 376.366 23.1836 376.366 22.5599C376.366 21.9362 376.484 21.3462 376.72 20.79C376.956 20.2337 377.281 19.7491 377.694 19.3361C378.107 18.9147 378.592 18.5818 379.148 18.3373C379.712 18.0929 380.315 17.9707 380.956 17.9707C381.596 17.9707 382.195 18.0929 382.751 18.3373C383.307 18.5733 383.788 18.8978 384.192 19.3108C384.605 19.7238 384.93 20.2084 385.166 20.7647C385.402 21.321 385.52 21.9109 385.52 22.5346ZM385.039 22.5346C385.039 21.9699 384.934 21.439 384.723 20.9417C384.521 20.436 384.234 19.9977 383.863 19.6269C383.501 19.256 383.071 18.9652 382.574 18.7545C382.077 18.5354 381.537 18.4258 380.956 18.4258C380.374 18.4258 379.83 18.5354 379.325 18.7545C378.828 18.9737 378.393 19.2687 378.023 19.6395C377.66 20.0104 377.374 20.4486 377.163 20.9543C376.952 21.46 376.847 21.9952 376.847 22.5599C376.847 23.133 376.948 23.6682 377.15 24.1655C377.361 24.6628 377.648 25.0968 378.01 25.4677C378.381 25.8385 378.815 26.1335 379.312 26.3527C379.809 26.5634 380.349 26.6687 380.93 26.6687C381.512 26.6687 382.051 26.5591 382.549 26.34C383.054 26.1209 383.488 25.8259 383.851 25.455C384.222 25.0842 384.512 24.6501 384.723 24.1529C384.934 23.6472 385.039 23.1078 385.039 22.5346ZM383.08 21.5485C383.08 21.9446 382.974 22.2649 382.764 22.5093C382.561 22.7453 382.296 22.9097 381.967 23.0024L383.257 24.8103H382.169L381.006 23.1541H380.007V24.8103H379.097V20.0188H381.234C381.79 20.0188 382.237 20.1536 382.574 20.4233C382.911 20.693 383.08 21.0681 383.08 21.5485ZM382.144 21.5991C382.144 21.3547 382.06 21.1692 381.891 21.0428C381.723 20.908 381.491 20.8405 381.196 20.8405H380.007V22.3576H381.196C381.491 22.3576 381.723 22.2902 381.891 22.1554C382.06 22.0205 382.144 21.8351 382.144 21.5991Z" fill="#012C3D"/>
</g>
<path d="M59.1001 80.6611H55.6812V79.2812H59.1001C59.7622 79.2812 60.2983 79.1758 60.7085 78.9648C61.1187 78.7539 61.4175 78.4609 61.605 78.0859C61.7983 77.7109 61.895 77.2832 61.895 76.8027C61.895 76.3633 61.7983 75.9502 61.605 75.5635C61.4175 75.1768 61.1187 74.8662 60.7085 74.6318C60.2983 74.3916 59.7622 74.2715 59.1001 74.2715H56.0767V85.6797H54.3804V72.8828H59.1001C60.0669 72.8828 60.8843 73.0498 61.5522 73.3838C62.2202 73.7178 62.7271 74.1807 63.0728 74.7725C63.4185 75.3584 63.5913 76.0293 63.5913 76.7852C63.5913 77.6055 63.4185 78.3057 63.0728 78.8857C62.7271 79.4658 62.2202 79.9082 61.5522 80.2129C60.8843 80.5117 60.0669 80.6611 59.1001 80.6611ZM73.8657 84.2998V85.6797H67.0894V84.2998H73.8657ZM67.4321 72.8828V85.6797H65.7358V72.8828H67.4321ZM72.9692 78.3848V79.7646H67.0894V78.3848H72.9692ZM73.7778 72.8828V74.2715H67.0894V72.8828H73.7778ZM85.8188 78.877V79.6855C85.8188 80.6465 85.6987 81.5078 85.4585 82.2695C85.2183 83.0312 84.8726 83.6787 84.4214 84.2119C83.9702 84.7451 83.4282 85.1523 82.7954 85.4336C82.1685 85.7148 81.4653 85.8555 80.686 85.8555C79.9302 85.8555 79.2358 85.7148 78.603 85.4336C77.9761 85.1523 77.4312 84.7451 76.9683 84.2119C76.5112 83.6787 76.1567 83.0312 75.9048 82.2695C75.6528 81.5078 75.5269 80.6465 75.5269 79.6855V78.877C75.5269 77.916 75.6499 77.0576 75.896 76.3018C76.1479 75.54 76.5024 74.8926 76.9595 74.3594C77.4165 73.8203 77.9585 73.4102 78.5854 73.1289C79.2183 72.8477 79.9126 72.707 80.6685 72.707C81.4478 72.707 82.1509 72.8477 82.7778 73.1289C83.4106 73.4102 83.9526 73.8203 84.4038 74.3594C84.8608 74.8926 85.2095 75.54 85.4497 76.3018C85.6958 77.0576 85.8188 77.916 85.8188 78.877ZM84.1401 79.6855V78.8594C84.1401 78.0977 84.061 77.4238 83.9028 76.8379C83.7505 76.252 83.5249 75.7598 83.2261 75.3613C82.9272 74.9629 82.561 74.6611 82.1274 74.4561C81.6997 74.251 81.2134 74.1484 80.6685 74.1484C80.1411 74.1484 79.6636 74.251 79.2358 74.4561C78.814 74.6611 78.4507 74.9629 78.146 75.3613C77.8472 75.7598 77.6157 76.252 77.4517 76.8379C77.2876 77.4238 77.2056 78.0977 77.2056 78.8594V79.6855C77.2056 80.4531 77.2876 81.1328 77.4517 81.7246C77.6157 82.3105 77.8501 82.8057 78.1548 83.21C78.4653 83.6084 78.8315 83.9102 79.2534 84.1152C79.6812 84.3203 80.1587 84.4229 80.686 84.4229C81.2368 84.4229 81.7261 84.3203 82.1538 84.1152C82.5815 83.9102 82.9419 83.6084 83.2349 83.21C83.5337 82.8057 83.7593 82.3105 83.9116 81.7246C84.064 81.1328 84.1401 80.4531 84.1401 79.6855ZM93.0786 80.6611H89.6597V79.2812H93.0786C93.7407 79.2812 94.2769 79.1758 94.687 78.9648C95.0972 78.7539 95.396 78.4609 95.5835 78.0859C95.7769 77.7109 95.8735 77.2832 95.8735 76.8027C95.8735 76.3633 95.7769 75.9502 95.5835 75.5635C95.396 75.1768 95.0972 74.8662 94.687 74.6318C94.2769 74.3916 93.7407 74.2715 93.0786 74.2715H90.0552V85.6797H88.3589V72.8828H93.0786C94.0454 72.8828 94.8628 73.0498 95.5308 73.3838C96.1987 73.7178 96.7056 74.1807 97.0513 74.7725C97.397 75.3584 97.5698 76.0293 97.5698 76.7852C97.5698 77.6055 97.397 78.3057 97.0513 78.8857C96.7056 79.4658 96.1987 79.9082 95.5308 80.2129C94.8628 80.5117 94.0454 80.6611 93.0786 80.6611ZM107.475 84.2998V85.6797H101.077V84.2998H107.475ZM101.411 72.8828V85.6797H99.7144V72.8828H101.411ZM117.547 84.2998V85.6797H110.771V84.2998H117.547ZM111.114 72.8828V85.6797H109.417V72.8828H111.114ZM116.651 78.3848V79.7646H110.771V78.3848H116.651ZM117.459 72.8828V74.2715H110.771V72.8828H117.459ZM125.809 72.8828V85.6797H124.113V72.8828H125.809ZM131.17 78.6396V80.0283H125.44V78.6396H131.17ZM132.041 72.8828V74.2715H125.44V72.8828H132.041ZM135.881 72.8828V85.6797H134.185V72.8828H135.881ZM138.966 72.8828H143.203C144.164 72.8828 144.975 73.0293 145.637 73.3223C146.305 73.6152 146.812 74.0488 147.158 74.623C147.509 75.1914 147.685 75.8916 147.685 76.7236C147.685 77.3096 147.565 77.8457 147.325 78.332C147.09 78.8125 146.75 79.2227 146.305 79.5625C145.866 79.8965 145.338 80.1455 144.723 80.3096L144.249 80.4941H140.267L140.25 79.1143H143.255C143.865 79.1143 144.372 79.0088 144.776 78.7979C145.18 78.5811 145.485 78.291 145.69 77.9277C145.895 77.5645 145.998 77.1631 145.998 76.7236C145.998 76.2314 145.901 75.8008 145.708 75.4316C145.514 75.0625 145.209 74.7783 144.793 74.5791C144.383 74.374 143.853 74.2715 143.203 74.2715H140.663V85.6797H138.966V72.8828ZM146.446 85.6797L143.334 79.8789L145.101 79.8701L148.256 85.5742V85.6797H146.446ZM156.878 82.4453C156.878 82.1465 156.832 81.8828 156.738 81.6543C156.65 81.4199 156.492 81.209 156.263 81.0215C156.041 80.834 155.73 80.6553 155.332 80.4854C154.939 80.3154 154.441 80.1426 153.837 79.9668C153.205 79.7793 152.633 79.5713 152.124 79.3428C151.614 79.1084 151.177 78.8418 150.814 78.543C150.451 78.2441 150.172 77.9014 149.979 77.5146C149.786 77.1279 149.689 76.6855 149.689 76.1875C149.689 75.6895 149.792 75.2295 149.997 74.8076C150.202 74.3857 150.495 74.0195 150.875 73.709C151.262 73.3926 151.722 73.1465 152.255 72.9707C152.789 72.7949 153.383 72.707 154.04 72.707C155 72.707 155.815 72.8916 156.483 73.2607C157.157 73.624 157.669 74.1016 158.021 74.6934C158.373 75.2793 158.548 75.9062 158.548 76.5742H156.861C156.861 76.0938 156.758 75.6689 156.553 75.2998C156.348 74.9248 156.038 74.6318 155.622 74.4209C155.206 74.2041 154.678 74.0957 154.04 74.0957C153.436 74.0957 152.938 74.1865 152.545 74.3682C152.153 74.5498 151.86 74.7959 151.667 75.1064C151.479 75.417 151.385 75.7715 151.385 76.1699C151.385 76.4395 151.441 76.6855 151.552 76.9082C151.669 77.125 151.848 77.3271 152.088 77.5146C152.334 77.7021 152.645 77.875 153.02 78.0332C153.401 78.1914 153.855 78.3438 154.382 78.4902C155.109 78.6953 155.736 78.9238 156.263 79.1758C156.791 79.4277 157.224 79.7119 157.564 80.0283C157.91 80.3389 158.165 80.6934 158.329 81.0918C158.499 81.4844 158.583 81.9297 158.583 82.4277C158.583 82.9492 158.478 83.4209 158.267 83.8428C158.056 84.2646 157.754 84.625 157.362 84.9238C156.969 85.2227 156.498 85.4541 155.947 85.6182C155.402 85.7764 154.792 85.8555 154.119 85.8555C153.527 85.8555 152.944 85.7734 152.37 85.6094C151.801 85.4453 151.283 85.1992 150.814 84.8711C150.351 84.543 149.979 84.1387 149.698 83.6582C149.422 83.1719 149.285 82.6094 149.285 81.9707H150.972C150.972 82.4102 151.057 82.7881 151.227 83.1045C151.397 83.415 151.628 83.6729 151.921 83.8779C152.22 84.083 152.557 84.2354 152.932 84.335C153.313 84.4287 153.708 84.4756 154.119 84.4756C154.71 84.4756 155.211 84.3936 155.622 84.2295C156.032 84.0654 156.342 83.8311 156.553 83.5264C156.77 83.2217 156.878 82.8613 156.878 82.4453ZM165.474 72.8828V85.6797H163.804V72.8828H165.474ZM169.587 72.8828V74.2715H159.7V72.8828H169.587Z" fill="#032C3D"/>
<path d="M177.898 78.1038H174.188V80.2558H177.898V83.9924H180.102V80.2558H183.813V78.1038H180.102V74.3672H177.898V78.1038Z" fill="#FCB518"/>
<path d="M192.054 85.6797H189.382L189.399 84.2998H192.054C192.968 84.2998 193.729 84.1094 194.339 83.7285C194.948 83.3418 195.405 82.8027 195.71 82.1113C196.021 81.4141 196.176 80.5996 196.176 79.668V78.8857C196.176 78.1533 196.088 77.5029 195.912 76.9346C195.736 76.3604 195.479 75.877 195.139 75.4844C194.799 75.0859 194.383 74.7842 193.891 74.5791C193.404 74.374 192.845 74.2715 192.212 74.2715H189.329V72.8828H192.212C193.05 72.8828 193.814 73.0234 194.506 73.3047C195.197 73.5801 195.792 73.9814 196.29 74.5088C196.794 75.0303 197.181 75.6631 197.45 76.4072C197.72 77.1455 197.854 77.9775 197.854 78.9033V79.668C197.854 80.5938 197.72 81.4287 197.45 82.1729C197.181 82.9111 196.791 83.541 196.281 84.0625C195.777 84.584 195.168 84.9854 194.453 85.2666C193.744 85.542 192.944 85.6797 192.054 85.6797ZM190.287 72.8828V85.6797H188.591V72.8828H190.287ZM200.403 72.8828H204.64C205.601 72.8828 206.412 73.0293 207.074 73.3223C207.742 73.6152 208.249 74.0488 208.595 74.623C208.946 75.1914 209.122 75.8916 209.122 76.7236C209.122 77.3096 209.002 77.8457 208.762 78.332C208.527 78.8125 208.188 79.2227 207.742 79.5625C207.303 79.8965 206.775 80.1455 206.16 80.3096L205.686 80.4941H201.704L201.687 79.1143H204.692C205.302 79.1143 205.809 79.0088 206.213 78.7979C206.617 78.5811 206.922 78.291 207.127 77.9277C207.332 77.5645 207.435 77.1631 207.435 76.7236C207.435 76.2314 207.338 75.8008 207.145 75.4316C206.951 75.0625 206.646 74.7783 206.23 74.5791C205.82 74.374 205.29 74.2715 204.64 74.2715H202.1V85.6797H200.403V72.8828ZM207.883 85.6797L204.771 79.8789L206.538 79.8701L209.693 85.5742V85.6797H207.883ZM213.314 72.8828V85.6797H211.618V72.8828H213.314ZM220.53 83.7373L224.301 72.8828H226.138L221.4 85.6797H220.091L220.53 83.7373ZM217.006 72.8828L220.741 83.7373L221.207 85.6797H219.897L215.169 72.8828H217.006ZM235.99 84.2998V85.6797H229.214V84.2998H235.99ZM229.557 72.8828V85.6797H227.86V72.8828H229.557ZM235.094 78.3848V79.7646H229.214V78.3848H235.094ZM235.902 72.8828V74.2715H229.214V72.8828H235.902ZM247.935 72.8828V85.6797H246.229L239.787 75.8096V85.6797H238.091V72.8828H239.787L246.256 82.7793V72.8828H247.935ZM259.782 72.8828V85.6797H258.112V72.8828H259.782ZM263.896 72.8828V74.2715H254.008V72.8828H263.896ZM275.4 78.877V79.6855C275.4 80.6465 275.28 81.5078 275.04 82.2695C274.8 83.0312 274.454 83.6787 274.003 84.2119C273.552 84.7451 273.01 85.1523 272.377 85.4336C271.75 85.7148 271.047 85.8555 270.268 85.8555C269.512 85.8555 268.817 85.7148 268.185 85.4336C267.558 85.1523 267.013 84.7451 266.55 84.2119C266.093 83.6787 265.738 83.0312 265.486 82.2695C265.234 81.5078 265.108 80.6465 265.108 79.6855V78.877C265.108 77.916 265.231 77.0576 265.478 76.3018C265.729 75.54 266.084 74.8926 266.541 74.3594C266.998 73.8203 267.54 73.4102 268.167 73.1289C268.8 72.8477 269.494 72.707 270.25 72.707C271.029 72.707 271.732 72.8477 272.359 73.1289C272.992 73.4102 273.534 73.8203 273.985 74.3594C274.442 74.8926 274.791 75.54 275.031 76.3018C275.277 77.0576 275.4 77.916 275.4 78.877ZM273.722 79.6855V78.8594C273.722 78.0977 273.643 77.4238 273.484 76.8379C273.332 76.252 273.106 75.7598 272.808 75.3613C272.509 74.9629 272.143 74.6611 271.709 74.4561C271.281 74.251 270.795 74.1484 270.25 74.1484C269.723 74.1484 269.245 74.251 268.817 74.4561C268.396 74.6611 268.032 74.9629 267.728 75.3613C267.429 75.7598 267.197 76.252 267.033 76.8379C266.869 77.4238 266.787 78.0977 266.787 78.8594V79.6855C266.787 80.4531 266.869 81.1328 267.033 81.7246C267.197 82.3105 267.432 82.8057 267.736 83.21C268.047 83.6084 268.413 83.9102 268.835 84.1152C269.263 84.3203 269.74 84.4229 270.268 84.4229C270.818 84.4229 271.308 84.3203 271.735 84.1152C272.163 83.9102 272.523 83.6084 272.816 83.21C273.115 82.8057 273.341 82.3105 273.493 81.7246C273.646 81.1328 273.722 80.4531 273.722 79.6855ZM286.782 72.8828V85.6797H285.112V72.8828H286.782ZM290.896 72.8828V74.2715H281.008V72.8828H290.896ZM292.794 72.8828H297.03C297.991 72.8828 298.803 73.0293 299.465 73.3223C300.133 73.6152 300.64 74.0488 300.985 74.623C301.337 75.1914 301.513 75.8916 301.513 76.7236C301.513 77.3096 301.393 77.8457 301.152 78.332C300.918 78.8125 300.578 79.2227 300.133 79.5625C299.693 79.8965 299.166 80.1455 298.551 80.3096L298.076 80.4941H294.095L294.077 79.1143H297.083C297.692 79.1143 298.199 79.0088 298.604 78.7979C299.008 78.5811 299.312 78.291 299.518 77.9277C299.723 77.5645 299.825 77.1631 299.825 76.7236C299.825 76.2314 299.729 75.8008 299.535 75.4316C299.342 75.0625 299.037 74.7783 298.621 74.5791C298.211 74.374 297.681 74.2715 297.03 74.2715H294.49V85.6797H292.794V72.8828ZM300.273 85.6797L297.162 79.8789L298.929 79.8701L302.084 85.5742V85.6797H300.273ZM308.623 74.0166L304.387 85.6797H302.655L307.533 72.8828H308.649L308.623 74.0166ZM312.174 85.6797L307.929 74.0166L307.902 72.8828H309.019L313.914 85.6797H312.174ZM311.954 80.9424V82.3311H304.765V80.9424H311.954ZM325.472 72.8828V85.6797H323.767L317.324 75.8096V85.6797H315.628V72.8828H317.324L323.793 82.7793V72.8828H325.472ZM335.298 82.4453C335.298 82.1465 335.251 81.8828 335.157 81.6543C335.069 81.4199 334.911 81.209 334.683 81.0215C334.46 80.834 334.149 80.6553 333.751 80.4854C333.358 80.3154 332.86 80.1426 332.257 79.9668C331.624 79.7793 331.053 79.5713 330.543 79.3428C330.033 79.1084 329.597 78.8418 329.233 78.543C328.87 78.2441 328.592 77.9014 328.398 77.5146C328.205 77.1279 328.108 76.6855 328.108 76.1875C328.108 75.6895 328.211 75.2295 328.416 74.8076C328.621 74.3857 328.914 74.0195 329.295 73.709C329.682 73.3926 330.142 73.1465 330.675 72.9707C331.208 72.7949 331.803 72.707 332.459 72.707C333.42 72.707 334.234 72.8916 334.902 73.2607C335.576 73.624 336.089 74.1016 336.44 74.6934C336.792 75.2793 336.968 75.9062 336.968 76.5742H335.28C335.28 76.0938 335.178 75.6689 334.973 75.2998C334.768 74.9248 334.457 74.6318 334.041 74.4209C333.625 74.2041 333.098 74.0957 332.459 74.0957C331.855 74.0957 331.357 74.1865 330.965 74.3682C330.572 74.5498 330.279 74.7959 330.086 75.1064C329.898 75.417 329.805 75.7715 329.805 76.1699C329.805 76.4395 329.86 76.6855 329.972 76.9082C330.089 77.125 330.268 77.3271 330.508 77.5146C330.754 77.7021 331.064 77.875 331.439 78.0332C331.82 78.1914 332.274 78.3438 332.802 78.4902C333.528 78.6953 334.155 78.9238 334.683 79.1758C335.21 79.4277 335.644 79.7119 335.983 80.0283C336.329 80.3389 336.584 80.6934 336.748 81.0918C336.918 81.4844 337.003 81.9297 337.003 82.4277C337.003 82.9492 336.897 83.4209 336.687 83.8428C336.476 84.2646 336.174 84.625 335.781 84.9238C335.389 85.2227 334.917 85.4541 334.366 85.6182C333.821 85.7764 333.212 85.8555 332.538 85.8555C331.946 85.8555 331.363 85.7734 330.789 85.6094C330.221 85.4453 329.702 85.1992 329.233 84.8711C328.771 84.543 328.398 84.1387 328.117 83.6582C327.842 83.1719 327.704 82.6094 327.704 81.9707H329.392C329.392 82.4102 329.477 82.7881 329.646 83.1045C329.816 83.415 330.048 83.6729 330.341 83.8779C330.64 84.083 330.977 84.2354 331.352 84.335C331.732 84.4287 332.128 84.4756 332.538 84.4756C333.13 84.4756 333.631 84.3936 334.041 84.2295C334.451 84.0654 334.762 83.8311 334.973 83.5264C335.189 83.2217 335.298 82.8613 335.298 82.4453ZM340.861 72.8828V85.6797H339.165V72.8828H340.861ZM346.223 78.6396V80.0283H340.492V78.6396H346.223ZM347.093 72.8828V74.2715H340.492V72.8828H347.093ZM358.967 78.877V79.6855C358.967 80.6465 358.847 81.5078 358.606 82.2695C358.366 83.0312 358.021 83.6787 357.569 84.2119C357.118 84.7451 356.576 85.1523 355.943 85.4336C355.316 85.7148 354.613 85.8555 353.834 85.8555C353.078 85.8555 352.384 85.7148 351.751 85.4336C351.124 85.1523 350.579 84.7451 350.116 84.2119C349.659 83.6787 349.305 83.0312 349.053 82.2695C348.801 81.5078 348.675 80.6465 348.675 79.6855V78.877C348.675 77.916 348.798 77.0576 349.044 76.3018C349.296 75.54 349.65 74.8926 350.107 74.3594C350.564 73.8203 351.106 73.4102 351.733 73.1289C352.366 72.8477 353.061 72.707 353.816 72.707C354.596 72.707 355.299 72.8477 355.926 73.1289C356.559 73.4102 357.101 73.8203 357.552 74.3594C358.009 74.8926 358.357 75.54 358.598 76.3018C358.844 77.0576 358.967 77.916 358.967 78.877ZM357.288 79.6855V78.8594C357.288 78.0977 357.209 77.4238 357.051 76.8379C356.898 76.252 356.673 75.7598 356.374 75.3613C356.075 74.9629 355.709 74.6611 355.275 74.4561C354.848 74.251 354.361 74.1484 353.816 74.1484C353.289 74.1484 352.812 74.251 352.384 74.4561C351.962 74.6611 351.599 74.9629 351.294 75.3613C350.995 75.7598 350.764 76.252 350.6 76.8379C350.436 77.4238 350.354 78.0977 350.354 78.8594V79.6855C350.354 80.4531 350.436 81.1328 350.6 81.7246C350.764 82.3105 350.998 82.8057 351.303 83.21C351.613 83.6084 351.979 83.9102 352.401 84.1152C352.829 84.3203 353.307 84.4229 353.834 84.4229C354.385 84.4229 354.874 84.3203 355.302 84.1152C355.729 83.9102 356.09 83.6084 356.383 83.21C356.682 82.8057 356.907 82.3105 357.06 81.7246C357.212 81.1328 357.288 80.4531 357.288 79.6855ZM361.507 72.8828H365.743C366.704 72.8828 367.516 73.0293 368.178 73.3223C368.846 73.6152 369.353 74.0488 369.698 74.623C370.05 75.1914 370.226 75.8916 370.226 76.7236C370.226 77.3096 370.105 77.8457 369.865 78.332C369.631 78.8125 369.291 79.2227 368.846 79.5625C368.406 79.8965 367.879 80.1455 367.264 80.3096L366.789 80.4941H362.808L362.79 79.1143H365.796C366.405 79.1143 366.912 79.0088 367.316 78.7979C367.721 78.5811 368.025 78.291 368.23 77.9277C368.436 77.5645 368.538 77.1631 368.538 76.7236C368.538 76.2314 368.441 75.8008 368.248 75.4316C368.055 75.0625 367.75 74.7783 367.334 74.5791C366.924 74.374 366.394 74.2715 365.743 74.2715H363.203V85.6797H361.507V72.8828ZM368.986 85.6797L365.875 79.8789L367.642 79.8701L370.797 85.5742V85.6797H368.986ZM373.135 72.8828H374.778L378.971 83.3154L383.154 72.8828H384.807L379.604 85.6797H378.32L373.135 72.8828ZM372.599 72.8828H374.049L374.286 80.6875V85.6797H372.599V72.8828ZM383.884 72.8828H385.334V85.6797H383.646V80.6875L383.884 72.8828Z" fill="#032C3D"/>
<defs>
<clipPath id="clip0_3972_18977">
<rect width="340.192" height="66.3603" fill="white" transform="translate(49.9043 0.320312)"/>
</clipPath>
</defs>
</svg>
