<svg xmlns="http://www.w3.org/2000/svg" xmlns:xlink="http://www.w3.org/1999/xlink" version="1.1" width="1000" height="1000" viewBox="0 0 1000 1000" xml:space="preserve">
<desc>Created with Fabric.js 3.5.0</desc>
<defs>
</defs>
<rect x="0" y="0" width="100%" height="100%" fill="#ffffff"/>
<g transform="matrix(2.9585 0 0 2.9585 499.9969 542.8895)" id="405032">
<g style="" vector-effect="non-scaling-stroke">
		<g transform="matrix(1 0 0 1 86.2536 -35.8013)" clip-path="url(#CLIPPATH_1)">
<clipPath id="CLIPPATH_1">
	<rect transform="matrix(1 0 0 1 -86.2533 24.3018)" id="clip0_3972_18977" x="-170.096" y="-33.18015" rx="0" ry="0" width="340.192" height="66.3603"/>
</clipPath>
<path style="stroke: none; stroke-width: 1; stroke-dasharray: none; stroke-linecap: butt; stroke-dashoffset: 0; stroke-linejoin: miter; stroke-miterlimit: 4; is-custom-font: none; font-file-url: none; fill: rgb(251,181,22); fill-rule: nonzero; opacity: 1;" transform=" translate(-306.2536, -9.1986)" d="M 301.677 9.19864 C 301.677 8.29348 301.945 7.40865 302.448 6.65604 C 302.951 5.90342 303.666 5.31683 304.502 4.97044 C 305.338 4.62405 306.258 4.53342 307.146 4.71001 C 308.034 4.8866 308.849 5.32247 309.489 5.96252 C 310.13 6.60256 310.565 7.41803 310.742 8.3058 C 310.919 9.19357 310.828 10.1138 310.482 10.95 C 310.135 11.7863 309.549 12.501 308.796 13.0039 C 308.043 13.5068 307.158 13.7752 306.253 13.7752 C 305.044 13.7613 303.888 13.2747 303.033 12.4194 C 302.177 11.5641 301.691 10.4081 301.677 9.19864 Z" stroke-linecap="round"/>
</g>
		<g transform="matrix(1 0 0 1 30.606 -35.7784)" clip-path="url(#CLIPPATH_2)">
<clipPath id="CLIPPATH_2">
	<rect transform="matrix(1 0 0 1 -30.6057 24.2789)" id="clip0_3972_18977" x="-170.096" y="-33.18015" rx="0" ry="0" width="340.192" height="66.3603"/>
</clipPath>
<path style="stroke: none; stroke-width: 1; stroke-dasharray: none; stroke-linecap: butt; stroke-dashoffset: 0; stroke-linejoin: miter; stroke-miterlimit: 4; is-custom-font: none; font-file-url: none; fill: rgb(251,181,22); fill-rule: nonzero; opacity: 1;" transform=" translate(-250.606, -9.2215)" d="M 246.018 9.19864 C 246.034 7.98977 246.521 6.83486 247.376 5.97999 C 248.231 5.12512 249.386 4.63787 250.595 4.62207 C 251.814 4.62207 252.984 5.10665 253.847 5.96922 C 254.71 6.83178 255.194 8.00167 255.194 9.22152 C 255.194 10.4414 254.71 11.6113 253.847 12.4738 C 252.984 13.3364 251.814 13.821 250.595 13.821 C 249.378 13.805 248.216 13.3114 247.36 12.4467 C 246.504 11.582 246.022 10.4155 246.018 9.19864 Z" stroke-linecap="round"/>
</g>
		<g transform="matrix(1 0 0 1 -46.875 -35.7784)" clip-path="url(#CLIPPATH_3)">
<clipPath id="CLIPPATH_3">
	<rect transform="matrix(1 0 0 1 46.8753 24.2789)" id="clip0_3972_18977" x="-170.096" y="-33.18015" rx="0" ry="0" width="340.192" height="66.3603"/>
</clipPath>
<path style="stroke: none; stroke-width: 1; stroke-dasharray: none; stroke-linecap: butt; stroke-dashoffset: 0; stroke-linejoin: miter; stroke-miterlimit: 4; is-custom-font: none; font-file-url: none; fill: rgb(251,181,22); fill-rule: nonzero; opacity: 1;" transform=" translate(-173.125, -9.2215)" d="M 168.537 9.19864 C 168.552 7.98977 169.04 6.83486 169.895 5.97999 C 170.749 5.12512 171.904 4.63787 173.113 4.62207 C 174.333 4.62207 175.503 5.10665 176.365 5.96922 C 177.228 6.83178 177.713 8.00167 177.713 9.22152 C 177.713 10.4414 177.228 11.6113 176.365 12.4738 C 175.503 13.3364 174.333 13.821 173.113 13.821 C 171.896 13.805 170.735 13.3114 169.879 12.4467 C 169.023 11.582 168.541 10.4155 168.537 9.19864 Z" stroke-linecap="round"/>
</g>
		<g transform="matrix(1 0 0 1 -46.826 -9.9473)" clip-path="url(#CLIPPATH_4)">
<clipPath id="CLIPPATH_4">
	<rect transform="matrix(1 0 0 1 46.8263 -1.5523)" id="clip0_3972_18977" x="-170.096" y="-33.18015" rx="0" ry="0" width="340.192" height="66.3603"/>
</clipPath>
<path style="stroke: none; stroke-width: 1; stroke-dasharray: none; stroke-linecap: butt; stroke-dashoffset: 0; stroke-linejoin: miter; stroke-miterlimit: 4; is-custom-font: none; font-file-url: none; fill: rgb(1,44,61); fill-rule: nonzero; opacity: 1;" transform=" translate(-173.174, -35.0528)" d="M 176.889 17.9707 H 169.459 V 52.1348 H 176.889 V 17.9707 Z" stroke-linecap="round"/>
</g>
		<g transform="matrix(1 0 0 1 -19.0005 -10.3712)" clip-path="url(#CLIPPATH_5)">
<clipPath id="CLIPPATH_5">
	<rect transform="matrix(1 0 0 1 19.0008 -1.1284)" id="clip0_3972_18977" x="-170.096" y="-33.18015" rx="0" ry="0" width="340.192" height="66.3603"/>
</clipPath>
<path style="stroke: none; stroke-width: 1; stroke-dasharray: none; stroke-linecap: butt; stroke-dashoffset: 0; stroke-linejoin: miter; stroke-miterlimit: 4; is-custom-font: none; font-file-url: none; fill: rgb(1,44,61); fill-rule: nonzero; opacity: 1;" transform=" translate(-200.9995, -34.6288)" d="M 205.203 17.1006 C 202.923 17.1197 200.674 17.621 198.602 18.5715 C 196.53 19.5219 194.683 20.9001 193.182 22.6154 V 17.9701 H 185.752 V 52.1419 H 193.182 V 28.2979 C 194.198 26.9166 195.517 25.7861 197.037 24.9929 C 198.557 24.1997 200.239 23.7647 201.953 23.7214 C 206.126 23.7214 208.818 25.491 208.818 30.7998 V 52.1571 H 216.247 V 28.0844 C 216.24 21.0822 212.579 17.1006 205.203 17.1006 Z" stroke-linecap="round"/>
</g>
		<g transform="matrix(1 0 0 1 17.8225 -16.8072)" clip-path="url(#CLIPPATH_6)">
<clipPath id="CLIPPATH_6">
	<rect transform="matrix(1 0 0 1 -17.8222 5.3077)" id="clip0_3972_18977" x="-170.096" y="-33.18015" rx="0" ry="0" width="340.192" height="66.3603"/>
</clipPath>
<path style="stroke: none; stroke-width: 1; stroke-dasharray: none; stroke-linecap: butt; stroke-dashoffset: 0; stroke-linejoin: miter; stroke-miterlimit: 4; is-custom-font: none; font-file-url: none; fill: rgb(1,44,61); fill-rule: nonzero; opacity: 1;" transform=" translate(-237.8225, -28.1927)" d="M 234.348 17.9706 V 16.0637 C 234.348 12.2499 236.186 10.3354 239.085 10.3354 C 240.131 10.2796 241.169 10.5458 242.059 11.0981 L 243.684 5.57574 C 241.848 4.64408 239.808 4.18776 237.75 4.24853 C 231.457 4.24853 226.926 8.42084 226.926 16.0637 V 17.9706 H 221.267 V 24.477 H 226.926 V 52.1423 H 234.356 V 24.477 H 246.949 V 52.1423 H 254.378 V 17.9706 H 234.348 Z" stroke-linecap="round"/>
</g>
		<g transform="matrix(1 0 0 1 58.63 -10.3712)" clip-path="url(#CLIPPATH_7)">
<clipPath id="CLIPPATH_7">
	<rect transform="matrix(1 0 0 1 -58.6297 -1.1284)" id="clip0_3972_18977" x="-170.096" y="-33.18015" rx="0" ry="0" width="340.192" height="66.3603"/>
</clipPath>
<path style="stroke: none; stroke-width: 1; stroke-dasharray: none; stroke-linecap: butt; stroke-dashoffset: 0; stroke-linejoin: miter; stroke-miterlimit: 4; is-custom-font: none; font-file-url: none; fill: rgb(1,44,61); fill-rule: nonzero; opacity: 1;" transform=" translate(-278.63, -34.6288)" d="M 282.844 17.1006 C 280.564 17.1206 278.314 17.6222 276.241 18.5726 C 274.168 19.5229 272.319 20.9006 270.816 22.6154 V 17.9701 H 263.386 V 52.1419 H 270.816 V 28.2979 C 271.832 26.9171 273.151 25.7869 274.671 24.9937 C 276.192 24.2005 277.873 23.7653 279.587 23.7214 C 283.76 23.7214 286.452 25.491 286.452 30.7998 V 52.1571 H 293.874 V 28.0844 C 293.874 21.0822 290.197 17.1006 282.844 17.1006 Z" stroke-linecap="round"/>
</g>
		<g transform="matrix(1 0 0 1 86.3065 -9.9473)" clip-path="url(#CLIPPATH_8)">
<clipPath id="CLIPPATH_8">
	<rect transform="matrix(1 0 0 1 -86.3062 -1.5523)" id="clip0_3972_18977" x="-170.096" y="-33.18015" rx="0" ry="0" width="340.192" height="66.3603"/>
</clipPath>
<path style="stroke: none; stroke-width: 1; stroke-dasharray: none; stroke-linecap: butt; stroke-dashoffset: 0; stroke-linejoin: miter; stroke-miterlimit: 4; is-custom-font: none; font-file-url: none; fill: rgb(1,44,61); fill-rule: nonzero; opacity: 1;" transform=" translate(-306.3065, -35.0528)" d="M 310.021 17.9707 H 302.592 V 52.1348 H 310.021 V 17.9707 Z" stroke-linecap="round"/>
</g>
		<g transform="matrix(1 0 0 1 105.5895 -14.1879)" clip-path="url(#CLIPPATH_9)">
<clipPath id="CLIPPATH_9">
	<rect transform="matrix(1 0 0 1 -105.5892 2.6883)" id="clip0_3972_18977" x="-170.096" y="-33.18015" rx="0" ry="0" width="340.192" height="66.3603"/>
</clipPath>
<path style="stroke: none; stroke-width: 1; stroke-dasharray: none; stroke-linecap: butt; stroke-dashoffset: 0; stroke-linejoin: miter; stroke-miterlimit: 4; is-custom-font: none; font-file-url: none; fill: rgb(1,44,61); fill-rule: nonzero; opacity: 1;" transform=" translate(-325.5895, -30.8121)" d="M 331.211 46.4067 C 329.09 46.4067 327.962 44.7134 327.962 42.3793 V 24.4773 H 334.895 V 17.971 H 327.962 V 8.63477 H 320.532 V 17.971 H 314.873 V 24.4773 H 320.532 V 44.2176 C 320.532 49.8773 323.583 52.9894 329.304 52.9894 C 332.767 52.9894 334.964 52.0664 336.306 50.7926 L 334.537 45.2092 C 333.62 46.0164 332.431 46.4446 331.211 46.4067 Z" stroke-linecap="round"/>
</g>
		<g transform="matrix(1 0 0 1 136.1 -3.0137)" clip-path="url(#CLIPPATH_10)">
<clipPath id="CLIPPATH_10">
	<rect transform="matrix(1 0 0 1 -136.0997 -8.4858)" id="clip0_3972_18977" x="-170.096" y="-33.18015" rx="0" ry="0" width="340.192" height="66.3603"/>
</clipPath>
<path style="stroke: none; stroke-width: 1; stroke-dasharray: none; stroke-linecap: butt; stroke-dashoffset: 0; stroke-linejoin: miter; stroke-miterlimit: 4; is-custom-font: none; font-file-url: none; fill: rgb(1,44,61); fill-rule: nonzero; opacity: 1;" transform=" translate(-356.1, -41.9862)" d="M 366.039 17.9707 L 356.062 43.5766 L 346.062 17.9707 H 338.167 L 352.164 52.562 L 350.471 56.452 C 349.479 58.7403 347.923 59.4268 345.589 59.4268 C 344.619 59.4155 343.66 59.2241 342.759 58.8624 L 341.623 65.506 C 342.996 65.8096 344.396 65.9757 345.803 66.0018 C 351.112 65.9179 355.215 64.0949 357.549 58.2903 L 374.033 17.9707 H 366.039 Z" stroke-linecap="round"/>
</g>
		<g transform="matrix(1 0 0 1 -117.5128 -17.4031)" clip-path="url(#CLIPPATH_11)">
<clipPath id="CLIPPATH_11">
	<rect transform="matrix(1 0 0 1 117.513 5.9035)" id="clip0_3972_18977" x="-170.096" y="-33.18015" rx="0" ry="0" width="340.192" height="66.3603"/>
</clipPath>
<path style="stroke: none; stroke-width: 1; stroke-dasharray: none; stroke-linecap: butt; stroke-dashoffset: 0; stroke-linejoin: miter; stroke-miterlimit: 4; is-custom-font: none; font-file-url: none; fill: rgb(251,181,22); fill-rule: nonzero; opacity: 1;" transform=" translate(-102.4873, -27.5969)" d="M 145.028 15.6292 L 147.957 18.8404 L 154.433 12.9442 C 151.898 9.29547 148.519 6.31214 144.585 4.24733 C 140.65 2.18252 136.276 1.09715 131.833 1.08328 C 125.122 1.06697 118.657 3.60919 113.755 8.19222 C 108.767 12.7688 105.029 19.0616 101.345 25.156 C 98.0727 30.6174 94.6861 36.2695 90.5367 40.4647 C 87.2415 43.7979 82.7107 45.476 77.0663 45.476 C 72.3346 45.476 67.7966 43.5964 64.4508 40.2505 C 61.105 36.9047 59.2253 32.3668 59.2253 27.635 C 59.2253 22.9033 61.105 18.3654 64.4508 15.0195 C 67.7966 11.6737 72.3346 9.79402 77.0663 9.79402 C 85.388 9.79402 90.9562 15.8961 92.9165 18.4361 L 97.6837 10.7475 C 94.8433 7.28148 91.1727 4.58983 87.0131 2.92269 C 82.8535 1.25555 78.34 0.667032 73.892 1.21184 C 69.444 1.75664 65.206 3.41708 61.5717 6.03883 C 57.9375 8.66058 55.025 12.1585 53.105 16.2076 C 51.185 20.2567 50.3198 24.7254 50.5898 29.1985 C 50.8598 33.6716 52.2562 38.0038 54.6493 41.7925 C 57.0424 45.5813 60.3545 48.7035 64.2777 50.8691 C 68.2009 53.0347 72.6079 54.1733 77.0892 54.1791 C 85.0295 54.1791 91.8181 51.5552 96.7379 46.5515 C 101.658 41.5478 105.266 35.5372 108.843 29.6335 C 112.42 23.7297 115.616 18.3293 119.697 14.5918 C 121.424 12.9803 123.453 11.7277 125.668 10.9066 C 127.883 10.0856 130.239 9.71255 132.599 9.80905 C 134.959 9.90555 137.276 10.4697 139.416 11.4688 C 141.556 12.4679 143.477 13.882 145.067 15.6292 H 145.028 Z" stroke-linecap="round"/>
</g>
		<g transform="matrix(1 0 0 1 -84.6106 -5.2656)" clip-path="url(#CLIPPATH_12)">
<clipPath id="CLIPPATH_12">
	<rect transform="matrix(1 0 0 1 84.6109 -6.234)" id="clip0_3972_18977" x="-170.096" y="-33.18015" rx="0" ry="0" width="340.192" height="66.3603"/>
</clipPath>
<path style="stroke: none; stroke-width: 1; stroke-dasharray: none; stroke-linecap: butt; stroke-dashoffset: 0; stroke-linejoin: miter; stroke-miterlimit: 4; is-custom-font: none; font-file-url: none; fill: rgb(251,181,22); fill-rule: nonzero; opacity: 1;" transform=" translate(-135.3894, -39.7344)" d="M 129.804 25.308 V 34.0112 H 148.507 L 148.278 34.568 C 146.917 37.8064 144.629 40.57 141.702 42.5109 C 138.774 44.4518 135.338 45.4832 131.825 45.4755 C 129.537 45.4755 125.883 44.7127 121.146 40.8989 C 119.591 39.6534 118.142 38.2808 116.814 36.7952 L 111.978 44.6746 C 114.556 47.7256 121.314 54.1786 131.81 54.1786 C 138.421 54.3088 144.838 51.9419 149.781 47.5502 C 153.92 43.9648 156.812 39.1569 158.041 33.8205 C 158.746 31.0336 158.962 28.1459 158.682 25.2852 L 129.804 25.308 Z" stroke-linecap="round"/>
</g>
		<g transform="matrix(1 0 0 1 160.943 -22.4528)" clip-path="url(#CLIPPATH_13)">
<clipPath id="CLIPPATH_13">
	<rect transform="matrix(1 0 0 1 -160.9427 10.9532)" id="clip0_3972_18977" x="-170.096" y="-33.18015" rx="0" ry="0" width="340.192" height="66.3603"/>
</clipPath>
<path style="stroke: none; stroke-width: 1; stroke-dasharray: none; stroke-linecap: butt; stroke-dashoffset: 0; stroke-linejoin: miter; stroke-miterlimit: 4; is-custom-font: none; font-file-url: none; fill: rgb(1,44,61); fill-rule: nonzero; opacity: 1;" transform=" translate(-380.943, -22.5472)" d="M 385.52 22.5346 C 385.52 23.1583 385.402 23.7483 385.166 24.3046 C 384.93 24.8608 384.605 25.3497 384.192 25.7711 C 383.779 26.1841 383.29 26.5128 382.726 26.7572 C 382.169 27.0016 381.571 27.1238 380.93 27.1238 C 380.29 27.1238 379.691 27.0058 379.135 26.7699 C 378.579 26.5254 378.094 26.1967 377.681 25.7837 C 377.277 25.3708 376.956 24.8861 376.72 24.3299 C 376.484 23.7736 376.366 23.1836 376.366 22.5599 C 376.366 21.9362 376.484 21.3462 376.72 20.79 C 376.956 20.2337 377.281 19.7491 377.694 19.3361 C 378.107 18.9147 378.592 18.5818 379.148 18.3373 C 379.712 18.0929 380.315 17.9707 380.956 17.9707 C 381.596 17.9707 382.195 18.0929 382.751 18.3373 C 383.307 18.5733 383.788 18.8978 384.192 19.3108 C 384.605 19.7238 384.93 20.2084 385.166 20.7647 C 385.402 21.321 385.52 21.9109 385.52 22.5346 Z M 385.039 22.5346 C 385.039 21.9699 384.934 21.439 384.723 20.9417 C 384.521 20.436 384.234 19.9977 383.863 19.6269 C 383.501 19.256 383.071 18.9652 382.574 18.7545 C 382.077 18.5354 381.537 18.4258 380.956 18.4258 C 380.374 18.4258 379.83 18.5354 379.325 18.7545 C 378.828 18.9737 378.393 19.2687 378.023 19.6395 C 377.66 20.0104 377.374 20.4486 377.163 20.9543 C 376.952 21.46 376.847 21.9952 376.847 22.5599 C 376.847 23.133 376.948 23.6682 377.15 24.1655 C 377.361 24.6628 377.648 25.0968 378.01 25.4677 C 378.381 25.8385 378.815 26.1335 379.312 26.3527 C 379.809 26.5634 380.349 26.6687 380.93 26.6687 C 381.512 26.6687 382.051 26.5591 382.549 26.34 C 383.054 26.1209 383.488 25.8259 383.851 25.455 C 384.222 25.0842 384.512 24.6501 384.723 24.1529 C 384.934 23.6472 385.039 23.1078 385.039 22.5346 Z M 383.08 21.5485 C 383.08 21.9446 382.974 22.2649 382.764 22.5093 C 382.561 22.7453 382.296 22.9097 381.967 23.0024 L 383.257 24.8103 H 382.169 L 381.006 23.1541 H 380.007 V 24.8103 H 379.097 V 20.0188 H 381.234 C 381.79 20.0188 382.237 20.1536 382.574 20.4233 C 382.911 20.693 383.08 21.0681 383.08 21.5485 Z M 382.144 21.5991 C 382.144 21.3547 382.06 21.1692 381.891 21.0428 C 381.723 20.908 381.491 20.8405 381.196 20.8405 H 380.007 V 22.3576 H 381.196 C 381.491 22.3576 381.723 22.2902 381.891 22.1554 C 382.06 22.0205 382.144 21.8351 382.144 21.5991 Z" stroke-linecap="round"/>
</g>
		<g transform="matrix(1 0 0 1 -108.0163 34.2813)">
<path style="stroke: none; stroke-width: 1; stroke-dasharray: none; stroke-linecap: butt; stroke-dashoffset: 0; stroke-linejoin: miter; stroke-miterlimit: 4; is-custom-font: none; font-file-url: none; fill: rgb(3,44,61); fill-rule: nonzero; opacity: 1;" transform=" translate(-111.9837, -79.2813)" d="M 59.1001 80.6611 H 55.6812 V 79.2812 H 59.1001 C 59.7622 79.2812 60.2983 79.1758 60.7085 78.9648 C 61.1187 78.7539 61.4175 78.4609 61.605 78.0859 C 61.7983 77.7109 61.895 77.2832 61.895 76.8027 C 61.895 76.3633 61.7983 75.9502 61.605 75.5635 C 61.4175 75.1768 61.1187 74.8662 60.7085 74.6318 C 60.2983 74.3916 59.7622 74.2715 59.1001 74.2715 H 56.0767 V 85.6797 H 54.3804 V 72.8828 H 59.1001 C 60.0669 72.8828 60.8843 73.0498 61.5522 73.3838 C 62.2202 73.7178 62.7271 74.1807 63.0728 74.7725 C 63.4185 75.3584 63.5913 76.0293 63.5913 76.7852 C 63.5913 77.6055 63.4185 78.3057 63.0728 78.8857 C 62.7271 79.4658 62.2202 79.9082 61.5522 80.2129 C 60.8843 80.5117 60.0669 80.6611 59.1001 80.6611 Z M 73.8657 84.2998 V 85.6797 H 67.0894 V 84.2998 H 73.8657 Z M 67.4321 72.8828 V 85.6797 H 65.7358 V 72.8828 H 67.4321 Z M 72.9692 78.3848 V 79.7646 H 67.0894 V 78.3848 H 72.9692 Z M 73.7778 72.8828 V 74.2715 H 67.0894 V 72.8828 H 73.7778 Z M 85.8188 78.877 V 79.6855 C 85.8188 80.6465 85.6987 81.5078 85.4585 82.2695 C 85.2183 83.0312 84.8726 83.6787 84.4214 84.2119 C 83.9702 84.7451 83.4282 85.1523 82.7954 85.4336 C 82.1685 85.7148 81.4653 85.8555 80.686 85.8555 C 79.9302 85.8555 79.2358 85.7148 78.603 85.4336 C 77.9761 85.1523 77.4312 84.7451 76.9683 84.2119 C 76.5112 83.6787 76.1567 83.0312 75.9048 82.2695 C 75.6528 81.5078 75.5269 80.6465 75.5269 79.6855 V 78.877 C 75.5269 77.916 75.6499 77.0576 75.896 76.3018 C 76.1479 75.54 76.5024 74.8926 76.9595 74.3594 C 77.4165 73.8203 77.9585 73.4102 78.5854 73.1289 C 79.2183 72.8477 79.9126 72.707 80.6685 72.707 C 81.4478 72.707 82.1509 72.8477 82.7778 73.1289 C 83.4106 73.4102 83.9526 73.8203 84.4038 74.3594 C 84.8608 74.8926 85.2095 75.54 85.4497 76.3018 C 85.6958 77.0576 85.8188 77.916 85.8188 78.877 Z M 84.1401 79.6855 V 78.8594 C 84.1401 78.0977 84.061 77.4238 83.9028 76.8379 C 83.7505 76.252 83.5249 75.7598 83.2261 75.3613 C 82.9272 74.9629 82.561 74.6611 82.1274 74.4561 C 81.6997 74.251 81.2134 74.1484 80.6685 74.1484 C 80.1411 74.1484 79.6636 74.251 79.2358 74.4561 C 78.814 74.6611 78.4507 74.9629 78.146 75.3613 C 77.8472 75.7598 77.6157 76.252 77.4517 76.8379 C 77.2876 77.4238 77.2056 78.0977 77.2056 78.8594 V 79.6855 C 77.2056 80.4531 77.2876 81.1328 77.4517 81.7246 C 77.6157 82.3105 77.8501 82.8057 78.1548 83.21 C 78.4653 83.6084 78.8315 83.9102 79.2534 84.1152 C 79.6812 84.3203 80.1587 84.4229 80.686 84.4229 C 81.2368 84.4229 81.7261 84.3203 82.1538 84.1152 C 82.5815 83.9102 82.9419 83.6084 83.2349 83.21 C 83.5337 82.8057 83.7593 82.3105 83.9116 81.7246 C 84.064 81.1328 84.1401 80.4531 84.1401 79.6855 Z M 93.0786 80.6611 H 89.6597 V 79.2812 H 93.0786 C 93.7407 79.2812 94.2769 79.1758 94.687 78.9648 C 95.0972 78.7539 95.396 78.4609 95.5835 78.0859 C 95.7769 77.7109 95.8735 77.2832 95.8735 76.8027 C 95.8735 76.3633 95.7769 75.9502 95.5835 75.5635 C 95.396 75.1768 95.0972 74.8662 94.687 74.6318 C 94.2769 74.3916 93.7407 74.2715 93.0786 74.2715 H 90.0552 V 85.6797 H 88.3589 V 72.8828 H 93.0786 C 94.0454 72.8828 94.8628 73.0498 95.5308 73.3838 C 96.1987 73.7178 96.7056 74.1807 97.0513 74.7725 C 97.397 75.3584 97.5698 76.0293 97.5698 76.7852 C 97.5698 77.6055 97.397 78.3057 97.0513 78.8857 C 96.7056 79.4658 96.1987 79.9082 95.5308 80.2129 C 94.8628 80.5117 94.0454 80.6611 93.0786 80.6611 Z M 107.475 84.2998 V 85.6797 H 101.077 V 84.2998 H 107.475 Z M 101.411 72.8828 V 85.6797 H 99.7144 V 72.8828 H 101.411 Z M 117.547 84.2998 V 85.6797 H 110.771 V 84.2998 H 117.547 Z M 111.114 72.8828 V 85.6797 H 109.417 V 72.8828 H 111.114 Z M 116.651 78.3848 V 79.7646 H 110.771 V 78.3848 H 116.651 Z M 117.459 72.8828 V 74.2715 H 110.771 V 72.8828 H 117.459 Z M 125.809 72.8828 V 85.6797 H 124.113 V 72.8828 H 125.809 Z M 131.17 78.6396 V 80.0283 H 125.44 V 78.6396 H 131.17 Z M 132.041 72.8828 V 74.2715 H 125.44 V 72.8828 H 132.041 Z M 135.881 72.8828 V 85.6797 H 134.185 V 72.8828 H 135.881 Z M 138.966 72.8828 H 143.203 C 144.164 72.8828 144.975 73.0293 145.637 73.3223 C 146.305 73.6152 146.812 74.0488 147.158 74.623 C 147.509 75.1914 147.685 75.8916 147.685 76.7236 C 147.685 77.3096 147.565 77.8457 147.325 78.332 C 147.09 78.8125 146.75 79.2227 146.305 79.5625 C 145.866 79.8965 145.338 80.1455 144.723 80.3096 L 144.249 80.4941 H 140.267 L 140.25 79.1143 H 143.255 C 143.865 79.1143 144.372 79.0088 144.776 78.7979 C 145.18 78.5811 145.485 78.291 145.69 77.9277 C 145.895 77.5645 145.998 77.1631 145.998 76.7236 C 145.998 76.2314 145.901 75.8008 145.708 75.4316 C 145.514 75.0625 145.209 74.7783 144.793 74.5791 C 144.383 74.374 143.853 74.2715 143.203 74.2715 H 140.663 V 85.6797 H 138.966 V 72.8828 Z M 146.446 85.6797 L 143.334 79.8789 L 145.101 79.8701 L 148.256 85.5742 V 85.6797 H 146.446 Z M 156.878 82.4453 C 156.878 82.1465 156.832 81.8828 156.738 81.6543 C 156.65 81.4199 156.492 81.209 156.263 81.0215 C 156.041 80.834 155.73 80.6553 155.332 80.4854 C 154.939 80.3154 154.441 80.1426 153.837 79.9668 C 153.205 79.7793 152.633 79.5713 152.124 79.3428 C 151.614 79.1084 151.177 78.8418 150.814 78.543 C 150.451 78.2441 150.172 77.9014 149.979 77.5146 C 149.786 77.1279 149.689 76.6855 149.689 76.1875 C 149.689 75.6895 149.792 75.2295 149.997 74.8076 C 150.202 74.3857 150.495 74.0195 150.875 73.709 C 151.262 73.3926 151.722 73.1465 152.255 72.9707 C 152.789 72.7949 153.383 72.707 154.04 72.707 C 155 72.707 155.815 72.8916 156.483 73.2607 C 157.157 73.624 157.669 74.1016 158.021 74.6934 C 158.373 75.2793 158.548 75.9062 158.548 76.5742 H 156.861 C 156.861 76.0938 156.758 75.6689 156.553 75.2998 C 156.348 74.9248 156.038 74.6318 155.622 74.4209 C 155.206 74.2041 154.678 74.0957 154.04 74.0957 C 153.436 74.0957 152.938 74.1865 152.545 74.3682 C 152.153 74.5498 151.86 74.7959 151.667 75.1064 C 151.479 75.417 151.385 75.7715 151.385 76.1699 C 151.385 76.4395 151.441 76.6855 151.552 76.9082 C 151.669 77.125 151.848 77.3271 152.088 77.5146 C 152.334 77.7021 152.645 77.875 153.02 78.0332 C 153.401 78.1914 153.855 78.3438 154.382 78.4902 C 155.109 78.6953 155.736 78.9238 156.263 79.1758 C 156.791 79.4277 157.224 79.7119 157.564 80.0283 C 157.91 80.3389 158.165 80.6934 158.329 81.0918 C 158.499 81.4844 158.583 81.9297 158.583 82.4277 C 158.583 82.9492 158.478 83.4209 158.267 83.8428 C 158.056 84.2646 157.754 84.625 157.362 84.9238 C 156.969 85.2227 156.498 85.4541 155.947 85.6182 C 155.402 85.7764 154.792 85.8555 154.119 85.8555 C 153.527 85.8555 152.944 85.7734 152.37 85.6094 C 151.801 85.4453 151.283 85.1992 150.814 84.8711 C 150.351 84.543 149.979 84.1387 149.698 83.6582 C 149.422 83.1719 149.285 82.6094 149.285 81.9707 H 150.972 C 150.972 82.4102 151.057 82.7881 151.227 83.1045 C 151.397 83.415 151.628 83.6729 151.921 83.8779 C 152.22 84.083 152.557 84.2354 152.932 84.335 C 153.313 84.4287 153.708 84.4756 154.119 84.4756 C 154.71 84.4756 155.211 84.3936 155.622 84.2295 C 156.032 84.0654 156.342 83.8311 156.553 83.5264 C 156.77 83.2217 156.878 82.8613 156.878 82.4453 Z M 165.474 72.8828 V 85.6797 H 163.804 V 72.8828 H 165.474 Z M 169.587 72.8828 V 74.2715 H 159.7 V 72.8828 H 169.587 Z" stroke-linecap="round"/>
</g>
		<g transform="matrix(1 0 0 1 -40.9995 34.1798)">
<path style="stroke: none; stroke-width: 1; stroke-dasharray: none; stroke-linecap: butt; stroke-dashoffset: 0; stroke-linejoin: miter; stroke-miterlimit: 4; is-custom-font: none; font-file-url: none; fill: rgb(252,181,24); fill-rule: nonzero; opacity: 1;" transform=" translate(-179.0005, -79.1798)" d="M 177.898 78.1038 H 174.188 V 80.2558 H 177.898 V 83.9924 H 180.102 V 80.2558 H 183.813 V 78.1038 H 180.102 V 74.3672 H 177.898 V 78.1038 Z" stroke-linecap="round"/>
</g>
		<g transform="matrix(1 0 0 1 66.9625 34.2813)">
<path style="stroke: none; stroke-width: 1; stroke-dasharray: none; stroke-linecap: butt; stroke-dashoffset: 0; stroke-linejoin: miter; stroke-miterlimit: 4; is-custom-font: none; font-file-url: none; fill: rgb(3,44,61); fill-rule: nonzero; opacity: 1;" transform=" translate(-286.9625, -79.2813)" d="M 192.054 85.6797 H 189.382 L 189.399 84.2998 H 192.054 C 192.968 84.2998 193.729 84.1094 194.339 83.7285 C 194.948 83.3418 195.405 82.8027 195.71 82.1113 C 196.021 81.4141 196.176 80.5996 196.176 79.668 V 78.8857 C 196.176 78.1533 196.088 77.5029 195.912 76.9346 C 195.736 76.3604 195.479 75.877 195.139 75.4844 C 194.799 75.0859 194.383 74.7842 193.891 74.5791 C 193.404 74.374 192.845 74.2715 192.212 74.2715 H 189.329 V 72.8828 H 192.212 C 193.05 72.8828 193.814 73.0234 194.506 73.3047 C 195.197 73.5801 195.792 73.9814 196.29 74.5088 C 196.794 75.0303 197.181 75.6631 197.45 76.4072 C 197.72 77.1455 197.854 77.9775 197.854 78.9033 V 79.668 C 197.854 80.5938 197.72 81.4287 197.45 82.1729 C 197.181 82.9111 196.791 83.541 196.281 84.0625 C 195.777 84.584 195.168 84.9854 194.453 85.2666 C 193.744 85.542 192.944 85.6797 192.054 85.6797 Z M 190.287 72.8828 V 85.6797 H 188.591 V 72.8828 H 190.287 Z M 200.403 72.8828 H 204.64 C 205.601 72.8828 206.412 73.0293 207.074 73.3223 C 207.742 73.6152 208.249 74.0488 208.595 74.623 C 208.946 75.1914 209.122 75.8916 209.122 76.7236 C 209.122 77.3096 209.002 77.8457 208.762 78.332 C 208.527 78.8125 208.188 79.2227 207.742 79.5625 C 207.303 79.8965 206.775 80.1455 206.16 80.3096 L 205.686 80.4941 H 201.704 L 201.687 79.1143 H 204.692 C 205.302 79.1143 205.809 79.0088 206.213 78.7979 C 206.617 78.5811 206.922 78.291 207.127 77.9277 C 207.332 77.5645 207.435 77.1631 207.435 76.7236 C 207.435 76.2314 207.338 75.8008 207.145 75.4316 C 206.951 75.0625 206.646 74.7783 206.23 74.5791 C 205.82 74.374 205.29 74.2715 204.64 74.2715 H 202.1 V 85.6797 H 200.403 V 72.8828 Z M 207.883 85.6797 L 204.771 79.8789 L 206.538 79.8701 L 209.693 85.5742 V 85.6797 H 207.883 Z M 213.314 72.8828 V 85.6797 H 211.618 V 72.8828 H 213.314 Z M 220.53 83.7373 L 224.301 72.8828 H 226.138 L 221.4 85.6797 H 220.091 L 220.53 83.7373 Z M 217.006 72.8828 L 220.741 83.7373 L 221.207 85.6797 H 219.897 L 215.169 72.8828 H 217.006 Z M 235.99 84.2998 V 85.6797 H 229.214 V 84.2998 H 235.99 Z M 229.557 72.8828 V 85.6797 H 227.86 V 72.8828 H 229.557 Z M 235.094 78.3848 V 79.7646 H 229.214 V 78.3848 H 235.094 Z M 235.902 72.8828 V 74.2715 H 229.214 V 72.8828 H 235.902 Z M 247.935 72.8828 V 85.6797 H 246.229 L 239.787 75.8096 V 85.6797 H 238.091 V 72.8828 H 239.787 L 246.256 82.7793 V 72.8828 H 247.935 Z M 259.782 72.8828 V 85.6797 H 258.112 V 72.8828 H 259.782 Z M 263.896 72.8828 V 74.2715 H 254.008 V 72.8828 H 263.896 Z M 275.4 78.877 V 79.6855 C 275.4 80.6465 275.28 81.5078 275.04 82.2695 C 274.8 83.0312 274.454 83.6787 274.003 84.2119 C 273.552 84.7451 273.01 85.1523 272.377 85.4336 C 271.75 85.7148 271.047 85.8555 270.268 85.8555 C 269.512 85.8555 268.817 85.7148 268.185 85.4336 C 267.558 85.1523 267.013 84.7451 266.55 84.2119 C 266.093 83.6787 265.738 83.0312 265.486 82.2695 C 265.234 81.5078 265.108 80.6465 265.108 79.6855 V 78.877 C 265.108 77.916 265.231 77.0576 265.478 76.3018 C 265.729 75.54 266.084 74.8926 266.541 74.3594 C 266.998 73.8203 267.54 73.4102 268.167 73.1289 C 268.8 72.8477 269.494 72.707 270.25 72.707 C 271.029 72.707 271.732 72.8477 272.359 73.1289 C 272.992 73.4102 273.534 73.8203 273.985 74.3594 C 274.442 74.8926 274.791 75.54 275.031 76.3018 C 275.277 77.0576 275.4 77.916 275.4 78.877 Z M 273.722 79.6855 V 78.8594 C 273.722 78.0977 273.643 77.4238 273.484 76.8379 C 273.332 76.252 273.106 75.7598 272.808 75.3613 C 272.509 74.9629 272.143 74.6611 271.709 74.4561 C 271.281 74.251 270.795 74.1484 270.25 74.1484 C 269.723 74.1484 269.245 74.251 268.817 74.4561 C 268.396 74.6611 268.032 74.9629 267.728 75.3613 C 267.429 75.7598 267.197 76.252 267.033 76.8379 C 266.869 77.4238 266.787 78.0977 266.787 78.8594 V 79.6855 C 266.787 80.4531 266.869 81.1328 267.033 81.7246 C 267.197 82.3105 267.432 82.8057 267.736 83.21 C 268.047 83.6084 268.413 83.9102 268.835 84.1152 C 269.263 84.3203 269.74 84.4229 270.268 84.4229 C 270.818 84.4229 271.308 84.3203 271.735 84.1152 C 272.163 83.9102 272.523 83.6084 272.816 83.21 C 273.115 82.8057 273.341 82.3105 273.493 81.7246 C 273.646 81.1328 273.722 80.4531 273.722 79.6855 Z M 286.782 72.8828 V 85.6797 H 285.112 V 72.8828 H 286.782 Z M 290.896 72.8828 V 74.2715 H 281.008 V 72.8828 H 290.896 Z M 292.794 72.8828 H 297.03 C 297.991 72.8828 298.803 73.0293 299.465 73.3223 C 300.133 73.6152 300.64 74.0488 300.985 74.623 C 301.337 75.1914 301.513 75.8916 301.513 76.7236 C 301.513 77.3096 301.393 77.8457 301.152 78.332 C 300.918 78.8125 300.578 79.2227 300.133 79.5625 C 299.693 79.8965 299.166 80.1455 298.551 80.3096 L 298.076 80.4941 H 294.095 L 294.077 79.1143 H 297.083 C 297.692 79.1143 298.199 79.0088 298.604 78.7979 C 299.008 78.5811 299.312 78.291 299.518 77.9277 C 299.723 77.5645 299.825 77.1631 299.825 76.7236 C 299.825 76.2314 299.729 75.8008 299.535 75.4316 C 299.342 75.0625 299.037 74.7783 298.621 74.5791 C 298.211 74.374 297.681 74.2715 297.03 74.2715 H 294.49 V 85.6797 H 292.794 V 72.8828 Z M 300.273 85.6797 L 297.162 79.8789 L 298.929 79.8701 L 302.084 85.5742 V 85.6797 H 300.273 Z M 308.623 74.0166 L 304.387 85.6797 H 302.655 L 307.533 72.8828 H 308.649 L 308.623 74.0166 Z M 312.174 85.6797 L 307.929 74.0166 L 307.902 72.8828 H 309.019 L 313.914 85.6797 H 312.174 Z M 311.954 80.9424 V 82.3311 H 304.765 V 80.9424 H 311.954 Z M 325.472 72.8828 V 85.6797 H 323.767 L 317.324 75.8096 V 85.6797 H 315.628 V 72.8828 H 317.324 L 323.793 82.7793 V 72.8828 H 325.472 Z M 335.298 82.4453 C 335.298 82.1465 335.251 81.8828 335.157 81.6543 C 335.069 81.4199 334.911 81.209 334.683 81.0215 C 334.46 80.834 334.149 80.6553 333.751 80.4854 C 333.358 80.3154 332.86 80.1426 332.257 79.9668 C 331.624 79.7793 331.053 79.5713 330.543 79.3428 C 330.033 79.1084 329.597 78.8418 329.233 78.543 C 328.87 78.2441 328.592 77.9014 328.398 77.5146 C 328.205 77.1279 328.108 76.6855 328.108 76.1875 C 328.108 75.6895 328.211 75.2295 328.416 74.8076 C 328.621 74.3857 328.914 74.0195 329.295 73.709 C 329.682 73.3926 330.142 73.1465 330.675 72.9707 C 331.208 72.7949 331.803 72.707 332.459 72.707 C 333.42 72.707 334.234 72.8916 334.902 73.2607 C 335.576 73.624 336.089 74.1016 336.44 74.6934 C 336.792 75.2793 336.968 75.9062 336.968 76.5742 H 335.28 C 335.28 76.0938 335.178 75.6689 334.973 75.2998 C 334.768 74.9248 334.457 74.6318 334.041 74.4209 C 333.625 74.2041 333.098 74.0957 332.459 74.0957 C 331.855 74.0957 331.357 74.1865 330.965 74.3682 C 330.572 74.5498 330.279 74.7959 330.086 75.1064 C 329.898 75.417 329.805 75.7715 329.805 76.1699 C 329.805 76.4395 329.86 76.6855 329.972 76.9082 C 330.089 77.125 330.268 77.3271 330.508 77.5146 C 330.754 77.7021 331.064 77.875 331.439 78.0332 C 331.82 78.1914 332.274 78.3438 332.802 78.4902 C 333.528 78.6953 334.155 78.9238 334.683 79.1758 C 335.21 79.4277 335.644 79.7119 335.983 80.0283 C 336.329 80.3389 336.584 80.6934 336.748 81.0918 C 336.918 81.4844 337.003 81.9297 337.003 82.4277 C 337.003 82.9492 336.897 83.4209 336.687 83.8428 C 336.476 84.2646 336.174 84.625 335.781 84.9238 C 335.389 85.2227 334.917 85.4541 334.366 85.6182 C 333.821 85.7764 333.212 85.8555 332.538 85.8555 C 331.946 85.8555 331.363 85.7734 330.789 85.6094 C 330.221 85.4453 329.702 85.1992 329.233 84.8711 C 328.771 84.543 328.398 84.1387 328.117 83.6582 C 327.842 83.1719 327.704 82.6094 327.704 81.9707 H 329.392 C 329.392 82.4102 329.477 82.7881 329.646 83.1045 C 329.816 83.415 330.048 83.6729 330.341 83.8779 C 330.64 84.083 330.977 84.2354 331.352 84.335 C 331.732 84.4287 332.128 84.4756 332.538 84.4756 C 333.13 84.4756 333.631 84.3936 334.041 84.2295 C 334.451 84.0654 334.762 83.8311 334.973 83.5264 C 335.189 83.2217 335.298 82.8613 335.298 82.4453 Z M 340.861 72.8828 V 85.6797 H 339.165 V 72.8828 H 340.861 Z M 346.223 78.6396 V 80.0283 H 340.492 V 78.6396 H 346.223 Z M 347.093 72.8828 V 74.2715 H 340.492 V 72.8828 H 347.093 Z M 358.967 78.877 V 79.6855 C 358.967 80.6465 358.847 81.5078 358.606 82.2695 C 358.366 83.0312 358.021 83.6787 357.569 84.2119 C 357.118 84.7451 356.576 85.1523 355.943 85.4336 C 355.316 85.7148 354.613 85.8555 353.834 85.8555 C 353.078 85.8555 352.384 85.7148 351.751 85.4336 C 351.124 85.1523 350.579 84.7451 350.116 84.2119 C 349.659 83.6787 349.305 83.0312 349.053 82.2695 C 348.801 81.5078 348.675 80.6465 348.675 79.6855 V 78.877 C 348.675 77.916 348.798 77.0576 349.044 76.3018 C 349.296 75.54 349.65 74.8926 350.107 74.3594 C 350.564 73.8203 351.106 73.4102 351.733 73.1289 C 352.366 72.8477 353.061 72.707 353.816 72.707 C 354.596 72.707 355.299 72.8477 355.926 73.1289 C 356.559 73.4102 357.101 73.8203 357.552 74.3594 C 358.009 74.8926 358.357 75.54 358.598 76.3018 C 358.844 77.0576 358.967 77.916 358.967 78.877 Z M 357.288 79.6855 V 78.8594 C 357.288 78.0977 357.209 77.4238 357.051 76.8379 C 356.898 76.252 356.673 75.7598 356.374 75.3613 C 356.075 74.9629 355.709 74.6611 355.275 74.4561 C 354.848 74.251 354.361 74.1484 353.816 74.1484 C 353.289 74.1484 352.812 74.251 352.384 74.4561 C 351.962 74.6611 351.599 74.9629 351.294 75.3613 C 350.995 75.7598 350.764 76.252 350.6 76.8379 C 350.436 77.4238 350.354 78.0977 350.354 78.8594 V 79.6855 C 350.354 80.4531 350.436 81.1328 350.6 81.7246 C 350.764 82.3105 350.998 82.8057 351.303 83.21 C 351.613 83.6084 351.979 83.9102 352.401 84.1152 C 352.829 84.3203 353.307 84.4229 353.834 84.4229 C 354.385 84.4229 354.874 84.3203 355.302 84.1152 C 355.729 83.9102 356.09 83.6084 356.383 83.21 C 356.682 82.8057 356.907 82.3105 357.06 81.7246 C 357.212 81.1328 357.288 80.4531 357.288 79.6855 Z M 361.507 72.8828 H 365.743 C 366.704 72.8828 367.516 73.0293 368.178 73.3223 C 368.846 73.6152 369.353 74.0488 369.698 74.623 C 370.05 75.1914 370.226 75.8916 370.226 76.7236 C 370.226 77.3096 370.105 77.8457 369.865 78.332 C 369.631 78.8125 369.291 79.2227 368.846 79.5625 C 368.406 79.8965 367.879 80.1455 367.264 80.3096 L 366.789 80.4941 H 362.808 L 362.79 79.1143 H 365.796 C 366.405 79.1143 366.912 79.0088 367.316 78.7979 C 367.721 78.5811 368.025 78.291 368.23 77.9277 C 368.436 77.5645 368.538 77.1631 368.538 76.7236 C 368.538 76.2314 368.441 75.8008 368.248 75.4316 C 368.055 75.0625 367.75 74.7783 367.334 74.5791 C 366.924 74.374 366.394 74.2715 365.743 74.2715 H 363.203 V 85.6797 H 361.507 V 72.8828 Z M 368.986 85.6797 L 365.875 79.8789 L 367.642 79.8701 L 370.797 85.5742 V 85.6797 H 368.986 Z M 373.135 72.8828 H 374.778 L 378.971 83.3154 L 383.154 72.8828 H 384.807 L 379.604 85.6797 H 378.32 L 373.135 72.8828 Z M 372.599 72.8828 H 374.049 L 374.286 80.6875 V 85.6797 H 372.599 V 72.8828 Z M 383.884 72.8828 H 385.334 V 85.6797 H 383.646 V 80.6875 L 383.884 72.8828 Z" stroke-linecap="round"/>
</g>
</g>
</g>
</svg>